<svg width="30" height="29" viewBox="0 0 30 29" fill="none" xmlns="http://www.w3.org/2000/svg">
<g clip-path="url(#clip0)">
<path d="M14.9939 0.222168C8.36497 0.222168 2.96875 5.37151 2.96875 11.6972C2.96875 12.4173 3.03793 13.1435 3.18259 13.8517C3.18888 13.8937 3.21403 14.0198 3.26435 14.2358C3.44674 15.01 3.71718 15.7722 4.06938 16.4984C5.36498 19.4092 8.21403 23.8803 14.4656 28.6696C14.6228 28.7896 14.8115 28.8496 15.0002 28.8496C15.1889 28.8496 15.3776 28.7896 15.5348 28.6696C21.7801 23.8803 24.6354 19.4092 25.931 16.4984C26.2832 15.7722 26.5537 15.016 26.736 14.2358C26.7864 14.0198 26.8115 13.8937 26.8178 13.8517C26.9562 13.1435 27.0316 12.4173 27.0316 11.6972C27.0191 5.37151 21.6228 0.222168 14.9939 0.222168ZM25.1323 13.5696C25.1323 13.5816 25.126 13.5936 25.126 13.6057C25.1197 13.6357 25.1008 13.7257 25.0694 13.8637C25.0694 13.8697 25.0694 13.8697 25.0694 13.8757C24.9121 14.5479 24.6794 15.2021 24.3713 15.8322C24.365 15.8382 24.365 15.8502 24.3587 15.8562C23.1826 18.5149 20.604 22.572 14.9939 26.9951C9.38384 22.572 6.80523 18.5149 5.62913 15.8562C5.62284 15.8502 5.62284 15.8382 5.61655 15.8322C5.31466 15.2081 5.08196 14.5479 4.91843 13.8757C4.91843 13.8697 4.91843 13.8697 4.91843 13.8637C4.8807 13.7257 4.86812 13.6357 4.86183 13.6057C4.86183 13.5936 4.85554 13.5816 4.85554 13.5636C4.72976 12.9455 4.66686 12.3213 4.66686 11.6912C4.66686 6.25974 9.30208 1.83659 14.9939 1.83659C20.6857 1.83659 25.3209 6.25974 25.3209 11.6912C25.3209 12.3273 25.2581 12.9575 25.1323 13.5696Z" fill="black"/>
<path d="M14.9941 4.53735C10.7866 4.53735 7.35889 7.80821 7.35889 11.8233C7.35889 15.8383 10.7866 19.1092 14.9941 19.1092C19.2016 19.1092 22.6293 15.8383 22.6293 11.8233C22.6293 7.80821 19.2016 4.53735 14.9941 4.53735ZM14.9941 17.4887C11.7174 17.4887 9.057 14.9441 9.057 11.8233C9.057 8.70244 11.7237 6.15778 14.9941 6.15778C18.2645 6.15778 20.9312 8.70244 20.9312 11.8233C20.9312 14.9441 18.2708 17.4887 14.9941 17.4887Z" fill="black"/>
</g>
<defs>
<clipPath id="clip0">
<rect width="30" height="28.6275" fill="white" transform="translate(0 0.222168)"/>
</clipPath>
</defs>
</svg>
