<svg width="30" height="23" viewBox="0 0 30 23" fill="none" xmlns="http://www.w3.org/2000/svg">
<path d="M29.999 0.627441L29.0703 3.01306H26.659L22.3165 17.3268H5.76777L-0.000976562 4.20587H21.014L20.309 6.59149H3.75902L7.43027 14.9412H20.4653L24.7553 0.627441H29.999ZM10.624 18.5196C9.58902 18.5196 8.74902 19.3212 8.74902 20.3088C8.74902 21.2977 9.58902 22.098 10.624 22.098C11.659 22.098 12.499 21.2977 12.499 20.3088C12.499 19.3212 11.659 18.5196 10.624 18.5196ZM19.249 10.1699L16.874 18.5196C15.839 18.5196 14.999 19.32 14.999 20.3088C14.999 21.2977 15.839 22.098 16.874 22.098C17.909 22.098 18.749 21.2977 18.749 20.3088C18.749 19.3212 17.909 18.5196 16.874 18.5196L19.249 10.1699Z" fill="#2F3035"/>
</svg>
