<svg width="24" height="22" viewBox="0 0 24 22" fill="none" xmlns="http://www.w3.org/2000/svg">
<path d="M12 8.47988C12.234 7.41112 13.547 2.53586 17.382 2.53586C19.602 2.53586 22 4.0159 22 7.30997C22 11.0382 18.373 15.3925 12 19.3612C5.627 15.3925 2 11.0382 2 7.30997C2 3.98537 4.369 2.53396 6.577 2.53396C10.5 2.53396 11.722 7.42543 12 8.47988ZM0 7.30997C0 11.1919 3.06 16.3572 12 21.6208C20.94 16.3572 24 11.1919 24 7.30997C24 -0.287756 14.352 -1.30499 12 3.74394C9.662 -1.27731 0 -0.330697 0 7.30997Z" fill="#2F3035"/>
</svg>
