<svg width="80" height="73" viewBox="0 0 80 73" fill="none" xmlns="http://www.w3.org/2000/svg">
<path d="M0.9 67.6666C0.833333 67.6666 0.8 67.6333 0.8 67.5666L0.84 53.8266C0.84 53.7733 0.866667 53.7466 0.92 53.7466L4.66 53.7266C5.39333 53.7133 6.06 53.8866 6.66 54.2466C7.27333 54.6066 7.76 55.0933 8.12 55.7066C8.48 56.3066 8.66 56.9733 8.66 57.7066V63.4466C8.66 64.22 8.47333 64.9266 8.1 65.5666C7.72667 66.1933 7.22667 66.6933 6.6 67.0666C5.97333 67.44 5.26667 67.6333 4.48 67.6466L0.9 67.6666ZM3.24 65.2066H4.48C4.97333 65.2066 5.38667 65.0333 5.72 64.6866C6.06667 64.34 6.24 63.9266 6.24 63.4466V57.6866C6.24 57.26 6.08 56.8933 5.76 56.5866C5.45333 56.2666 5.08667 56.1133 4.66 56.1266L3.26 56.1466L3.24 65.2066ZM10.3136 67.6666C10.2603 67.6666 10.2336 67.6333 10.2336 67.5666L10.2736 53.8266C10.2736 53.7733 10.3003 53.7466 10.3536 53.7466H14.3936C15.1136 53.7466 15.7736 53.9266 16.3736 54.2866C16.9869 54.6333 17.4736 55.1066 17.8336 55.7066C18.1936 56.2933 18.3736 56.96 18.3736 57.7066C18.3736 58.2 18.3003 58.6466 18.1536 59.0466C18.0069 59.4333 17.8336 59.7666 17.6336 60.0466C17.4336 60.3133 17.2536 60.5133 17.0936 60.6466C17.8136 61.4466 18.1736 62.3866 18.1736 63.4666L18.1936 67.5666C18.1936 67.6333 18.1603 67.6666 18.0936 67.6666H15.8336C15.7803 67.6666 15.7536 67.6466 15.7536 67.6066V63.4666C15.7536 62.9866 15.5803 62.5733 15.2336 62.2266C14.9003 61.8666 14.4869 61.6866 13.9936 61.6866H12.6736L12.6536 67.5666C12.6536 67.6333 12.6269 67.6666 12.5736 67.6666H10.3136ZM12.6736 59.2866H14.3936C14.8069 59.2866 15.1736 59.1333 15.4936 58.8266C15.8136 58.52 15.9736 58.1466 15.9736 57.7066C15.9736 57.28 15.8136 56.9133 15.4936 56.6066C15.1869 56.3 14.8203 56.1466 14.3936 56.1466H12.6736V59.2866ZM19.982 67.6666C19.9154 67.6666 19.882 67.6333 19.882 67.5666L19.902 53.8266C19.902 53.7733 19.9287 53.7466 19.982 53.7466H22.222C22.2754 53.7466 22.302 53.7733 22.302 53.8266L22.322 67.5666C22.322 67.6333 22.2954 67.6666 22.242 67.6666H19.982ZM26.3213 67.6666C26.2679 67.6666 26.2346 67.6333 26.2212 67.5666L23.4613 53.8266C23.4479 53.7733 23.4746 53.7466 23.5413 53.7466H25.8013C25.8546 53.7466 25.8879 53.7733 25.9013 53.8266L27.5413 62.9866L29.1413 53.8266C29.1546 53.7733 29.1879 53.7466 29.2413 53.7466H31.4813C31.5479 53.7466 31.5746 53.7733 31.5613 53.8266L28.8413 67.5666C28.8279 67.6333 28.7946 67.6666 28.7413 67.6666H26.3213ZM32.8136 67.6666C32.7603 67.6666 32.7336 67.6333 32.7336 67.5666L32.7536 53.8266C32.7536 53.7733 32.7803 53.7466 32.8336 53.7466H39.2536C39.3069 53.7466 39.3336 53.78 39.3336 53.8466V56.0866C39.3336 56.14 39.3069 56.1666 39.2536 56.1666H35.1536V59.2866H39.2536C39.3069 59.2866 39.3336 59.3133 39.3336 59.3666L39.3536 61.6266C39.3536 61.68 39.3269 61.7066 39.2736 61.7066H35.1536V65.2066H39.2736C39.3269 65.2066 39.3536 65.24 39.3536 65.3066V67.5866C39.3536 67.64 39.3269 67.6666 39.2736 67.6666H32.8136ZM44.1808 67.6666C44.1274 67.6666 44.1008 67.6333 44.1008 67.5666L44.1408 53.8266C44.1408 53.7733 44.1674 53.7466 44.2208 53.7466H46.6608C46.7141 53.7466 46.7608 53.7733 46.8008 53.8266L48.6208 56.4666L50.4408 53.8266C50.4808 53.7733 50.5274 53.7466 50.5808 53.7466H53.0408C53.0941 53.7466 53.1208 53.7733 53.1208 53.8266L53.1608 67.5666C53.1608 67.6333 53.1341 67.6666 53.0808 67.6666H50.8208C50.7674 67.6666 50.7408 67.6333 50.7408 67.5666L50.7208 57.3666L48.6208 60.4066L46.5408 57.3666L46.5208 67.5666C46.5208 67.6333 46.4941 67.6666 46.4408 67.6666H44.1808ZM58.543 67.8666C57.823 67.8666 57.163 67.6866 56.563 67.3266C55.9763 66.9533 55.503 66.4666 55.143 65.8666C54.783 65.2533 54.603 64.58 54.603 63.8466L54.623 57.5066C54.623 56.7733 54.7963 56.1066 55.143 55.5066C55.503 54.9066 55.983 54.4266 56.583 54.0666C57.183 53.7066 57.8363 53.5266 58.543 53.5266C59.263 53.5266 59.9163 53.7066 60.503 54.0666C61.0896 54.4266 61.5563 54.9066 61.903 55.5066C62.263 56.1066 62.443 56.7733 62.443 57.5066L62.463 63.8466C62.463 64.58 62.283 65.2533 61.923 65.8666C61.5763 66.4666 61.103 66.9533 60.503 67.3266C59.9163 67.6866 59.263 67.8666 58.543 67.8666ZM58.543 65.4466C58.943 65.4466 59.2896 65.2866 59.583 64.9666C59.8896 64.6333 60.043 64.26 60.043 63.8466L60.023 57.5066C60.023 57.0666 59.883 56.6933 59.603 56.3866C59.323 56.08 58.9696 55.9266 58.543 55.9266C58.1296 55.9266 57.7763 56.08 57.483 56.3866C57.1896 56.68 57.043 57.0533 57.043 57.5066V63.8466C57.043 64.2866 57.1896 64.6666 57.483 64.9866C57.7763 65.2933 58.1296 65.4466 58.543 65.4466ZM65.7297 67.6666C65.6764 67.6666 65.6497 67.6333 65.6497 67.5666V56.1666H63.0497C62.983 56.1666 62.9497 56.1333 62.9497 56.0666L62.9697 53.8266C62.9697 53.7733 62.9964 53.7466 63.0497 53.7466H70.6497C70.7164 53.7466 70.7497 53.7733 70.7497 53.8266V56.0666C70.7497 56.1333 70.723 56.1666 70.6697 56.1666H68.0497L68.0697 67.5666C68.0697 67.6333 68.043 67.6666 67.9897 67.6666H65.7297ZM74.9883 67.8666C74.2683 67.8666 73.6083 67.6866 73.0083 67.3266C72.4216 66.9533 71.9483 66.4666 71.5883 65.8666C71.2283 65.2533 71.0483 64.58 71.0483 63.8466L71.0683 57.5066C71.0683 56.7733 71.2416 56.1066 71.5883 55.5066C71.9483 54.9066 72.4283 54.4266 73.0283 54.0666C73.6283 53.7066 74.2816 53.5266 74.9883 53.5266C75.7083 53.5266 76.3616 53.7066 76.9483 54.0666C77.5349 54.4266 78.0016 54.9066 78.3483 55.5066C78.7083 56.1066 78.8883 56.7733 78.8883 57.5066L78.9083 63.8466C78.9083 64.58 78.7283 65.2533 78.3683 65.8666C78.0216 66.4666 77.5483 66.9533 76.9483 67.3266C76.3616 67.6866 75.7083 67.8666 74.9883 67.8666ZM74.9883 65.4466C75.3883 65.4466 75.7349 65.2866 76.0283 64.9666C76.3349 64.6333 76.4883 64.26 76.4883 63.8466L76.4683 57.5066C76.4683 57.0666 76.3283 56.6933 76.0483 56.3866C75.7683 56.08 75.4149 55.9266 74.9883 55.9266C74.5749 55.9266 74.2216 56.08 73.9283 56.3866C73.6349 56.68 73.4883 57.0533 73.4883 57.5066V63.8466C73.4883 64.2866 73.6349 64.6666 73.9283 64.9866C74.2216 65.2933 74.5749 65.4466 74.9883 65.4466Z" fill="#2F3035"/>
<path d="M59.0441 7.59194C58.3406 6.92073 57.2364 6.82176 56.4141 7.35645C53.3162 9.37136 37.7781 19.5033 36.1082 21.0967C33.6866 23.4076 33.6866 27.1676 36.1082 29.4785C37.319 30.6339 38.9097 31.2116 40.5001 31.2116C42.0905 31.2116 43.681 30.6339 44.8919 29.4785C46.5618 27.885 57.1794 13.0578 59.291 10.1017C59.8511 9.31713 59.7475 8.26335 59.0441 7.59194ZM41.9639 26.6846C41.1568 27.4549 39.8433 27.4549 39.0362 26.6846C38.2289 25.9144 38.2288 24.6614 39.0357 23.8911C39.6846 23.2792 44.0961 20.2769 49.5239 16.6767C45.7511 21.8561 42.6049 26.0656 41.9639 26.6846Z" fill="#2F3035"/>
<path d="M23.5473 34.4765L20.9915 35.6662C19.1214 32.4813 18.1406 28.9265 18.1406 25.2876C18.1406 22.6214 18.6558 20.0679 19.5961 17.7129L22.5246 19.0533C22.8134 19.1855 23.1183 19.2481 23.4186 19.2481C24.1901 19.2481 24.9307 18.8347 25.2867 18.1265C25.7811 17.1427 25.3463 15.9626 24.3153 15.4907L21.4239 14.1673C25.0177 8.57437 31.2356 4.67504 38.4298 4.04186V7.01326C38.4298 8.10437 39.3567 8.98885 40.5001 8.98885C41.6435 8.98885 42.5704 8.10437 42.5704 7.01326V4.04038C45.037 4.25464 47.4236 4.85403 49.6893 5.82997C50.7312 6.27893 51.9575 5.83649 52.428 4.84228C52.8985 3.84776 52.435 2.67772 51.3928 2.22876C47.9596 0.749935 44.2948 0 40.5 0C33.4216 0 26.7669 2.6303 21.7616 7.4065C16.7565 12.1828 14 18.533 14 25.2876C14 30.2789 15.5525 35.1334 18.4898 39.3257C18.8854 39.8902 19.5395 40.2034 20.2122 40.2034C20.518 40.2034 20.8277 40.1387 21.1187 40.0033L25.3628 38.0277C26.3905 37.5493 26.8172 36.3666 26.3159 35.3859C25.8145 34.4053 24.5751 33.9983 23.5473 34.4765Z" fill="#2F3035"/>
<path d="M64.6643 14.8932C64.194 13.8988 62.968 13.4563 61.9255 13.9054C60.8834 14.3544 60.42 15.5244 60.8905 16.5188C62.1971 19.2805 62.8594 22.2307 62.8594 25.2876C62.8594 28.932 61.8754 32.4925 59.9998 35.681L57.3315 34.4685C56.2994 33.9994 55.0639 34.4176 54.5722 35.4028C54.0806 36.3878 54.519 37.5668 55.5514 38.0359L59.899 40.0115C60.185 40.1414 60.4882 40.2035 60.788 40.2035C61.4608 40.2035 62.1151 39.8899 62.5102 39.3257C65.4475 35.1333 67.0001 30.2789 67.0001 25.2876C67.0001 21.6664 66.2142 18.1692 64.6643 14.8932Z" fill="#2F3035"/>
</svg>
